<svg xmlns="http://www.w3.org/2000/svg" viewBox="0 0 24 24" fill="none">
  <path d="M20.5 11.8c0 4.7-4 8.5-8.8 8.5-1.4 0-2.7-.3-3.9-.9L3.5 20l1-3.6a8 8 0 0 1-1.6-4.6C2.9 7 6.9 3.2 11.7 3.2c4.8 0 8.8 3.8 8.8 8.6Z" fill="#7BAF7B"/>
  <path d="M9.2 8.1c-.2-.3-.4-.3-.6-.3h-.5c-.2 0-.5.1-.7.3-.2.3-.8.8-.8 1.9 0 1.1.8 2.2.9 2.3.1.2 1.5 2.4 3.7 3.3 1.8.7 2.2.6 2.6.5.4-.1 1.3-.5 1.5-1 .2-.5.2-.9.2-1 0-.1-.2-.2-.4-.3l-1.4-.7c-.2-.1-.3-.1-.5.2-.1.3-.6.7-.7.9-.1.2-.3.2-.5.1-.2-.1-.9-.3-1.6-1.1-.6-.6-1-1.4-1.1-1.6-.1-.2 0-.4.1-.5.1-.1.2-.3.3-.4.1-.1.2-.2.3-.4.1-.1 0-.3 0-.4l-.6-1.5Z" fill="#FFFFFF"/>
</svg>
